<?xml version="1.0" encoding="UTF-8" standalone="no"?>

<svg
   width="22"
   height="22"
   viewBox="0 0 0.66 0.66"
   fill="none"
   version="1.1"
   id="svg2"
   sodipodi:docname="download.svg"
   inkscape:version="1.4 (e7c3feb100, 2024-10-09)"
   xmlns:inkscape="http://www.inkscape.org/namespaces/inkscape"
   xmlns:sodipodi="http://sodipodi.sourceforge.net/DTD/sodipodi-0.dtd"
   xmlns="http://www.w3.org/2000/svg"
   xmlns:svg="http://www.w3.org/2000/svg">
  <defs
     id="defs2" />
  <sodipodi:namedview
     id="namedview2"
     pagecolor="#ffffff"
     bordercolor="#000000"
     borderopacity="0.25"
     inkscape:showpageshadow="2"
     inkscape:pageopacity="0.0"
     inkscape:pagecheckerboard="0"
     inkscape:deskcolor="#d1d1d1"
     inkscape:zoom="34.075"
     inkscape:cx="20"
     inkscape:cy="10.990462"
     inkscape:window-width="1920"
     inkscape:window-height="1133"
     inkscape:window-x="0"
     inkscape:window-y="0"
     inkscape:window-maximized="1"
     inkscape:current-layer="svg2" />
  <path
     d="M 0.32667,0.03 A 0.03333333,0.03333333 0 0 1 0.36,0.06333 v 0.319534 l 0.07643,-0.07643 a 0.03333333,0.03333333 0 0 1 0.04713,0.04713 L 0.350237,0.4869 a 0.03333333,0.03333333 0 0 1 -0.04713,0 L 0.16977,0.353567 A 0.03333333,0.03333333 0 1 1 0.2169,0.306437 l 0.07643,0.07643 V 0.063333 A 0.03333333,0.03333333 0 0 1 0.32667,0.03 Z"
     fill="#000000"
     id="path1"
     style="stroke-width:0.0333333" />
  <path
     d="m 0.12667,0.496667 a 0.033335,0.033335 0 1 0 -0.06667,0 v 0.02 C 0.06,0.579397 0.1106,0.63 0.173334,0.63 H 0.48 c 0.06273,0 0.113334,-0.0506 0.113334,-0.113333 v -0.02 a 0.033335,0.033335 0 1 0 -0.06667,0 v 0.02 c 0,0.02593 -0.02073,0.04667 -0.04667,0.04667 H 0.173328 c -0.02593,0 -0.04667,-0.02073 -0.04667,-0.04667 z"
     fill="#000000"
     id="path2"
     style="stroke-width:0.0333333" />
</svg>
