<?xml version="1.0" encoding="UTF-8" standalone="no"?>
<!-- Uploaded to: SVG Repo, www.svgrepo.com, Generator: SVG Repo Mixer Tools -->

<svg
   width="18"
   height="18"
   viewBox="0 0 0.54 0.54"
   fill="none"
   version="1.1"
   id="svg4"
   sodipodi:docname="emoji-sick.svg"
   inkscape:version="1.4 (unknown)"
   xmlns:inkscape="http://www.inkscape.org/namespaces/inkscape"
   xmlns:sodipodi="http://sodipodi.sourceforge.net/DTD/sodipodi-0.dtd"
   xmlns="http://www.w3.org/2000/svg"
   xmlns:svg="http://www.w3.org/2000/svg">
  <defs
     id="defs4" />
  <sodipodi:namedview
     id="namedview4"
     pagecolor="#ffffff"
     bordercolor="#000000"
     borderopacity="0.25"
     inkscape:showpageshadow="2"
     inkscape:pageopacity="0.0"
     inkscape:pagecheckerboard="0"
     inkscape:deskcolor="#d1d1d1"
     showgrid="false"
     inkscape:zoom="54.3125"
     inkscape:cx="8.9758343"
     inkscape:cy="8.5155351"
     inkscape:window-width="1920"
     inkscape:window-height="1133"
     inkscape:window-x="0"
     inkscape:window-y="0"
     inkscape:window-maximized="1"
     inkscape:current-layer="svg4" />
  <path
     d="m 0.193636,0.248182 c 0.01807,0 0.03273,-0.01465 0.03273,-0.03273 0,-0.01808 -0.01465,-0.03273 -0.03273,-0.03273 -0.01807,0 -0.03273,0.01465 -0.03273,0.03273 0,0.01807 0.01465,0.03273 0.03273,0.03273 z"
     fill="#0f0f0f"
     id="path1"
     style="stroke-width:0.0218182" />
  <path
     d="m 0.379091,0.215455 c 0,0.01807 -0.01465,0.03273 -0.03273,0.03273 -0.01807,0 -0.03273,-0.01465 -0.03273,-0.03273 0,-0.01808 0.01465,-0.03273 0.03273,-0.03273 0.01807,0 0.03273,0.01465 0.03273,0.03273 z"
     fill="#0f0f0f"
     id="path2"
     style="stroke-width:0.0218182" />
  <path
     d="m 0.151152,0.354969 c 0.01059,0.0053 0.02342,0.0012 0.02898,-0.0092 0.005,-0.0079 0.0158,-0.01032 0.02441,-0.01032 0.0098,0 0.01349,0.0025 0.02052,0.0072 l 1.03e-4,6.9e-5 c 0.0093,0.0062 0.02191,0.01457 0.04483,0.01457 0.02292,0 0.03556,-0.0084 0.04483,-0.01457 l 1.02e-4,-6.9e-5 c 0.007,-0.0047 0.01077,-0.0072 0.02052,-0.0072 0.0086,0 0.01941,0.0025 0.02441,0.01032 0.0056,0.01036 0.01839,0.01449 0.02898,0.0092 0.01051,-0.0053 0.01499,-0.01889 0.0097,-0.02937 -0.001,-0.002 -0.0022,-0.0039 -0.0042,-0.0066 -0.0025,-0.0033 -0.0061,-0.0074 -0.01115,-0.01144 -0.01041,-0.0083 -0.02606,-0.01569 -0.04772,-0.01569 -0.02292,0 -0.03556,0.0084 -0.04483,0.01457 l -1.03e-4,6.9e-5 c -0.007,0.0047 -0.01076,0.0072 -0.02052,0.0072 -0.0098,0 -0.01349,-0.0025 -0.02052,-0.0072 l -1.03e-4,-6.9e-5 c -0.0093,-0.0062 -0.02191,-0.01457 -0.04483,-0.01457 -0.02166,0 -0.03731,0.0074 -0.04772,0.01569 -0.0051,0.0041 -0.0087,0.0082 -0.01116,0.01144 -0.0021,0.0028 -0.0032,0.0047 -0.0043,0.0067 -0.0053,0.01054 -8.17e-4,0.02404 0.0097,0.02932 z"
     fill="#0f0f0f"
     id="path3"
     style="stroke-width:0.0218182" />
  <path
     fill-rule="evenodd"
     clip-rule="evenodd"
     d="m 0.27,0.51 c 0.132548,0 0.24,-0.107452 0.24,-0.24 0,-0.132548 -0.107452,-0.24 -0.24,-0.24 -0.132548,0 -0.24,0.107452 -0.24,0.24 0,0.132548 0.107452,0.24 0.24,0.24 z m 0,-0.04378 c -0.108366,0 -0.196215,-0.08785 -0.196215,-0.196215 0,-0.108366 0.08785,-0.196215 0.196215,-0.196215 0.108367,0 0.196215,0.08785 0.196215,0.196215 0,0.108367 -0.08785,0.196215 -0.196215,0.196215 z"
     fill="#0f0f0f"
     id="path4"
     style="stroke-width:0.0218182" />
</svg>
