<?xml version="1.0" encoding="UTF-8" standalone="no"?>
<svg
   xmlns:dc="http://purl.org/dc/elements/1.1/"
   xmlns:cc="http://creativecommons.org/ns#"
   xmlns:rdf="http://www.w3.org/1999/02/22-rdf-syntax-ns#"
   xmlns:svg="http://www.w3.org/2000/svg"
   xmlns="http://www.w3.org/2000/svg"
   xmlns:sodipodi="http://sodipodi.sourceforge.net/DTD/sodipodi-0.dtd"
   xmlns:inkscape="http://www.inkscape.org/namespaces/inkscape"
   width="18"
   height="18"
   version="1.1"
   id="svg140"
   sodipodi:docname="package-downgrade.svg"
   inkscape:version="1.0.1 (3bc2e813f5, 2020-09-07)">
  <metadata
     id="metadata146">
    <rdf:RDF>
      <cc:Work
         rdf:about="">
        <dc:format>image/svg+xml</dc:format>
        <dc:type
           rdf:resource="http://purl.org/dc/dcmitype/StillImage" />
        <dc:title></dc:title>
      </cc:Work>
    </rdf:RDF>
  </metadata>
  <defs
     id="defs144" />
  <sodipodi:namedview
     pagecolor="#ffffff"
     bordercolor="#666666"
     borderopacity="1"
     objecttolerance="10"
     gridtolerance="10"
     guidetolerance="10"
     inkscape:pageopacity="0"
     inkscape:pageshadow="2"
     inkscape:window-width="1920"
     inkscape:window-height="1135"
     id="namedview142"
     showgrid="false"
     inkscape:zoom="56.1875"
     inkscape:cx="8"
     inkscape:cy="7.3001668"
     inkscape:window-x="0"
     inkscape:window-y="0"
     inkscape:window-maximized="1"
     inkscape:current-layer="svg140" />
  <!--

Copyright (C) 2018 Stasiek Michalski <hellcp@opensuse.org>

This image is freely licensed under the terms of Creative
Commons Attribution-ShareAlike 4.0 International license.
You can read terms of the license on:
https://creativecommons.org/licenses/by-sa/4.0/legalcode

-->
  <path
     fill="#241f31"
     d="M 3,17 C 1.892,17 1,16.108 1,15 V 3 C 1,1.892 1.892,1 3,1 h 12 c 1.108,0 2,0.892 2,2 v 12 c 0,1.108 -0.892,2 -2,2 z M 3,15 H 15 V 3 H 3 Z"
     id="path132" />
  <rect
     fill="#ffffff"
     width="12"
     height="12"
     x="3"
     y="3"
     opacity="1"
     id="rect134" />
  <path
     d="M 8,3 V 9.5859375 L 5.7070312,7.2929688 4.2929688,8.7070312 9,13.414062 13.707031,8.7070312 12.292969,7.2929688 10,9.5859375 V 3 Z"
     fill="#241f31"
     id="path136" />
  <path
     d="M 8,3 V 9.5859375 L 5.7070312,7.2929688 4.2929688,8.7070312 9,13.414062 13.707031,8.7070312 12.292969,7.2929688 10,9.5859375 V 3 Z"
     fill="#e01b24"
     class="error"
     id="path138" />
</svg>
