<?xml version="1.0" encoding="UTF-8" standalone="no"?>
<svg
   xmlns:dc="http://purl.org/dc/elements/1.1/"
   xmlns:cc="http://creativecommons.org/ns#"
   xmlns:rdf="http://www.w3.org/1999/02/22-rdf-syntax-ns#"
   xmlns:svg="http://www.w3.org/2000/svg"
   xmlns="http://www.w3.org/2000/svg"
   xmlns:sodipodi="http://sodipodi.sourceforge.net/DTD/sodipodi-0.dtd"
   xmlns:inkscape="http://www.inkscape.org/namespaces/inkscape"
   width="18"
   height="18"
   version="1.1"
   id="svg637"
   sodipodi:docname="package-remove-auto.svg"
   inkscape:version="1.0.1 (3bc2e813f5, 2020-09-07)">
  <metadata
     id="metadata643">
    <rdf:RDF>
      <cc:Work
         rdf:about="">
        <dc:format>image/svg+xml</dc:format>
        <dc:type
           rdf:resource="http://purl.org/dc/dcmitype/StillImage" />
        <dc:title></dc:title>
      </cc:Work>
    </rdf:RDF>
  </metadata>
  <defs
     id="defs641" />
  <sodipodi:namedview
     pagecolor="#ffffff"
     bordercolor="#666666"
     borderopacity="1"
     objecttolerance="10"
     gridtolerance="10"
     guidetolerance="10"
     inkscape:pageopacity="0"
     inkscape:pageshadow="2"
     inkscape:window-width="1920"
     inkscape:window-height="1135"
     id="namedview639"
     showgrid="false"
     inkscape:zoom="39.730562"
     inkscape:cx="-0.098450875"
     inkscape:cy="6.1606891"
     inkscape:window-x="0"
     inkscape:window-y="0"
     inkscape:window-maximized="1"
     inkscape:current-layer="svg637" />
  <!--

Copyright (C) 2018 Stasiek Michalski <hellcp@opensuse.org>

This image is freely licensed under the terms of Creative
Commons Attribution-ShareAlike 4.0 International license.
You can read terms of the license on:
https://creativecommons.org/licenses/by-sa/4.0/legalcode

-->
  <path
     opacity="1"
     fill="#ffffff"
     d="m 3,3 v 12 h 1 v 2 h 10 v -2 h 1 V 3 Z"
     id="path629" />
  <path
     fill="#241f31"
     d="M 3,1 C 1.892,1 1,1.892 1,3 v 12 c 0,1.108 0.892,2 2,2 H 4 V 15 H 3 V 3 H 15 V 3.8789062 8.1210938 15 h -1 v 2 h 1 c 1.108,0 2,-0.892 2,-2 V 6.1210938 4 3 C 17,1.892 16.108,1 15,1 Z m 2,14 v 2 h 2 v -2 z m 3,0 v 2 h 2 v -2 z m 3,0 v 1 1 h 1 1 v -1 -1 h -1 z"
     id="path631" />
  <path
     fill="#241f31"
     d="M 6.0605469,3.9394531 3.9394531,6.0605469 6.8789062,9 3.9394531,11.939453 6.0605469,14.060547 9,11.121094 11.939453,14.060547 14.060547,11.939453 11.121094,9 14.060547,6.0605469 11.939453,3.9394531 9,6.8789062 Z"
     id="path633" />
  <path
     class="error"
     fill="#e01b24"
     d="M 6.0605469,3.9394531 3.9394531,6.0605469 6.8789062,9 3.9394531,11.939453 6.0605469,14.060547 9,11.121094 11.939453,14.060547 14.060547,11.939453 11.121094,9 14.060547,6.0605469 11.939453,3.9394531 9,6.8789062 Z"
     id="path635" />
</svg>
