<?xml version="1.0" encoding="UTF-8" standalone="no"?>
<svg
   xmlns:dc="http://purl.org/dc/elements/1.1/"
   xmlns:cc="http://creativecommons.org/ns#"
   xmlns:rdf="http://www.w3.org/1999/02/22-rdf-syntax-ns#"
   xmlns:svg="http://www.w3.org/2000/svg"
   xmlns="http://www.w3.org/2000/svg"
   xmlns:sodipodi="http://sodipodi.sourceforge.net/DTD/sodipodi-0.dtd"
   xmlns:inkscape="http://www.inkscape.org/namespaces/inkscape"
   width="18"
   height="18"
   version="1.1"
   id="svg220"
   sodipodi:docname="package-install.svg"
   inkscape:version="1.0.1 (3bc2e813f5, 2020-09-07)">
  <metadata
     id="metadata226">
    <rdf:RDF>
      <cc:Work
         rdf:about="">
        <dc:format>image/svg+xml</dc:format>
        <dc:type
           rdf:resource="http://purl.org/dc/dcmitype/StillImage" />
        <dc:title></dc:title>
      </cc:Work>
    </rdf:RDF>
  </metadata>
  <defs
     id="defs224" />
  <sodipodi:namedview
     pagecolor="#ffffff"
     bordercolor="#666666"
     borderopacity="1"
     objecttolerance="10"
     gridtolerance="10"
     guidetolerance="10"
     inkscape:pageopacity="0"
     inkscape:pageshadow="2"
     inkscape:window-width="1920"
     inkscape:window-height="1135"
     id="namedview222"
     showgrid="false"
     inkscape:zoom="56.1875"
     inkscape:cx="8.779771"
     inkscape:cy="5.8642937"
     inkscape:window-x="0"
     inkscape:window-y="0"
     inkscape:window-maximized="1"
     inkscape:current-layer="svg220" />
  <!--

Copyright (C) 2018 Stasiek Michalski <hellcp@opensuse.org>

This image is freely licensed under the terms of Creative
Commons Attribution-ShareAlike 4.0 International license.
You can read terms of the license on:
https://creativecommons.org/licenses/by-sa/4.0/legalcode

-->
  <rect
     y="3"
     x="3"
     height="12"
     width="12"
     fill="#ffffff"
     opacity="1"
     id="rect214" />
  <path
     d="M 3,1 C 1.892,1 1,1.892 1,3 v 12 c 0,1.108 0.892,2 2,2 h 12 c 1.108,0 2,-0.892 2,-2 V 6.1210938 4 3 C 17,1.892 16.108,1 15,1 Z m 0,2 h 12 v 0.8789062 l -6,6 L 6.0605469,6.9394531 3.9394531,9.0605469 9,14.121094 15,8.1210938 V 15 H 3 Z"
     fill="#241f31"
     id="path216" />
  <path
     d="m 15,3.8789062 -6,6 L 6.0605469,6.9394531 3.9394531,9.0605469 9,14.121094 15,8.1210938 Z"
     fill="#33d17a"
     class="success"
     id="path218" />
</svg>
