<?xml version="1.0" encoding="UTF-8" standalone="no"?>
<svg
   xmlns:dc="http://purl.org/dc/elements/1.1/"
   xmlns:cc="http://creativecommons.org/ns#"
   xmlns:rdf="http://www.w3.org/1999/02/22-rdf-syntax-ns#"
   xmlns:svg="http://www.w3.org/2000/svg"
   xmlns="http://www.w3.org/2000/svg"
   xmlns:sodipodi="http://sodipodi.sourceforge.net/DTD/sodipodi-0.dtd"
   xmlns:inkscape="http://www.inkscape.org/namespaces/inkscape"
   width="18"
   height="18"
   version="1.1"
   id="svg10"
   sodipodi:docname="package-available-locked.svg"
   inkscape:version="1.0.1 (3bc2e813f5, 2020-09-07)">
  <metadata
     id="metadata16">
    <rdf:RDF>
      <cc:Work
         rdf:about="">
        <dc:format>image/svg+xml</dc:format>
        <dc:type
           rdf:resource="http://purl.org/dc/dcmitype/StillImage" />
        <dc:title></dc:title>
      </cc:Work>
    </rdf:RDF>
  </metadata>
  <defs
     id="defs14" />
  <sodipodi:namedview
     pagecolor="#ffffff"
     bordercolor="#666666"
     borderopacity="1"
     objecttolerance="10"
     gridtolerance="10"
     guidetolerance="10"
     inkscape:pageopacity="0"
     inkscape:pageshadow="2"
     inkscape:window-width="1920"
     inkscape:window-height="1135"
     id="namedview12"
     showgrid="false"
     inkscape:zoom="49.1875"
     inkscape:cx="8"
     inkscape:cy="8.4973863"
     inkscape:window-x="0"
     inkscape:window-y="0"
     inkscape:window-maximized="1"
     inkscape:current-layer="svg10" />
  <!--

Copyright (C) 2018 Stasiek Michalski <hellcp@opensuse.org>

This image is freely licensed under the terms of Creative
Commons Attribution-ShareAlike 4.0 International license.
You can read terms of the license on:
https://creativecommons.org/licenses/by-sa/4.0/legalcode

-->
  <path
     fill="#241f31"
     d="M 3,1 C 1.892,1 1,1.892 1,3 v 12 c 0,1.108 0.892,2 2,2 h 12 c 1.108,0 2,-0.892 2,-2 V 3 C 17,1.892 16.108,1 15,1 Z M 3,3 H 15 V 15 H 3 Z"
     id="path2" />
  <rect
     fill="#ffffff"
     opacity="1"
     width="12"
     height="12"
     x="3"
     y="3"
     id="rect4" />
  <path
     d="M 9,4 C 6.23,4 4,6.23 4,9 c 0,2.77 2.23,5 5,5 2.77,0 5,-2.23 5,-5 C 14,6.23 11.77,4 9,4 Z m 0,2 c 0.4633777,0 0.8960791,0.1127894 1.287109,0.2988281 L 6.2988281,10.287109 C 6.1127894,9.8960791 6,9.4633777 6,9 6,7.338 7.338,6 9,6 Z m 2.701172,1.7128906 C 11.887211,8.1039209 12,8.5366223 12,9 12,10.662 10.662,12 9,12 8.5366223,12 8.1039209,11.887211 7.7128906,11.701172 Z"
     fill="#241f31"
     id="path6" />
  <path
     d="M 9,4 C 6.23,4 4,6.23 4,9 c 0,2.77 2.23,5 5,5 2.77,0 5,-2.23 5,-5 C 14,6.23 11.77,4 9,4 Z m 0,2 c 0.4633777,0 0.8960791,0.1127894 1.287109,0.2988281 L 6.2988281,10.287109 C 6.1127894,9.8960791 6,9.4633777 6,9 6,7.338 7.338,6 9,6 Z m 2.701172,1.7128906 C 11.887211,8.1039209 12,8.5366223 12,9 12,10.662 10.662,12 9,12 8.5366223,12 8.1039209,11.887211 7.7128906,11.701172 Z"
     fill="#e01b24"
     class="error"
     id="path8" />
</svg>
